<svg width="24" height="24" viewBox="0 0 24 24" fill="none" xmlns="http://www.w3.org/2000/svg">
<path d="M12.0002 10.8333C12.6445 10.8333 13.1668 11.3557 13.1668 12V17.8333C13.1668 18.4777 12.6445 19 12.0002 19C11.3558 19 10.8335 18.4777 10.8335 17.8333V12C10.8335 11.3557 11.3558 10.8333 12.0002 10.8333Z" fill="#0062E1"/>
<path d="M12.0002 8.50001C12.6445 8.50001 13.1668 7.97768 13.1668 7.33334C13.1668 6.68901 12.6445 6.16668 12.0002 6.16668C11.3558 6.16668 10.8335 6.68901 10.8335 7.33334C10.8335 7.97768 11.3558 8.50001 12.0002 8.50001Z" fill="#0062E1"/>
<path fill-rule="evenodd" clip-rule="evenodd" d="M0.333496 12C0.333496 5.55669 5.55684 0.333344 12.0002 0.333344C18.4435 0.333344 23.6668 5.55669 23.6668 12C23.6668 18.4433 18.4435 23.6667 12.0002 23.6667C5.55684 23.6667 0.333496 18.4433 0.333496 12ZM12.0002 1.50001C6.20117 1.50001 1.50016 6.20102 1.50016 12C1.50016 17.799 6.20117 22.5 12.0002 22.5C17.7992 22.5 22.5002 17.799 22.5002 12C22.5002 6.20102 17.7992 1.50001 12.0002 1.50001Z" fill="#0062E1"/>
</svg>
