<svg width="80" height="13" viewBox="0 0 80 13" fill="none" xmlns="http://www.w3.org/2000/svg">
<path d="M0 12.502L2.20158 0.442139H5.60055L3.39892 12.502H0Z" fill="#0162EC"/>
<path d="M8.25089 12.502L9.92538 3.15097H6.46216L6.95692 0.442139H17.2324L16.7377 3.15097H13.2745L11.5999 12.502H8.25089Z" fill="#0162EC"/>
<path d="M19.2874 7.66217C19.2874 2.85902 22.0327 0 25.8074 0C29.6966 0 30.6117 2.24909 30.8024 4.46007L27.4851 4.72691C27.4089 3.69766 27.0276 2.74466 25.6549 2.74466C23.5578 2.74466 22.6809 5.14623 22.6809 7.58593C22.6809 9.11073 23.2909 10.1781 24.7399 10.1781C25.8837 10.1781 26.7226 9.37758 27.2945 7.81465L30.2686 8.88201C29.201 11.3217 27.6377 12.8465 24.5873 12.8465C21.3845 12.8465 19.2874 11.0549 19.2874 7.66217Z" fill="#0162EC"/>
<path d="M29.4297 12.6178L35.9117 0.190628H39.0383L41.1354 12.6178H37.8562L37.5512 10.2925H33.7383L32.5563 12.6178H29.4297ZM34.9966 7.92904H37.2462L36.7887 4.49821H36.7505L34.9966 7.92904Z" fill="#0162EC"/>
<path d="M42.0886 12.6178L44.262 0.228752H47.5792L50.7058 7.16664H50.7439L51.9641 0.228752H55.0144L52.8411 12.6178H49.7526L46.3972 5.67995H46.3591L45.139 12.6178H42.0886Z" fill="#0162EC"/>
<path d="M57.2261 12.6178L59.3994 0.228752H63.7843C66.1102 0.228752 68.3217 0.762435 68.3217 2.97341C68.3217 5.29874 66.949 5.94679 65.5764 6.21363V6.25175C66.8347 6.48047 67.7497 7.20476 67.7497 8.76769C67.7497 12.1985 64.6613 12.6559 62.9836 12.6559H57.2261V12.6178ZM60.9246 10.1019H62.7548C63.7462 10.1019 64.5088 9.64445 64.5088 8.6152C64.5088 7.8528 63.975 7.50972 62.5261 7.50972H61.3822L60.9246 10.1019ZM61.8016 5.14626H63.3268C64.3562 5.14626 64.9663 4.72694 64.9663 3.81205C64.9663 3.12589 64.5088 2.78281 63.1742 2.78281H62.1829L61.8016 5.14626Z" fill="#0162EC"/>
<path d="M68.6267 12.6178L70.8001 0.228752H79.4554L78.9597 3.01153H73.6598L73.3166 5.0319H77.0533L76.5957 7.62408H72.859L72.4396 9.91129H78.0446L77.549 12.6178H68.6267Z" fill="#0162EC"/>
</svg>
