<svg width="49" height="52" viewBox="0 0 49 52" fill="none" xmlns="http://www.w3.org/2000/svg">
<path d="M25.3843 27.0666C25.3843 26.3676 24.7873 25.8009 24.0509 25.8009C23.3146 25.8009 22.7176 26.3676 22.7176 27.0666V28.3322C22.7176 29.0312 23.3146 29.5978 24.0509 29.5978C24.7873 29.5978 25.3843 29.0312 25.3843 28.3322V27.0666Z" fill="#0062E1"/>
<path fill-rule="evenodd" clip-rule="evenodd" d="M19.2527 12.3047C20.4414 11.2168 22.0435 10.6134 23.7043 10.6134H24.3976C26.0584 10.6134 27.6605 11.2168 28.8492 12.3047C30.0395 13.3941 30.7176 14.8817 30.7176 16.443V19.4728H33.3843C34.1207 19.4728 34.7176 20.0394 34.7176 20.7384V29.5978C34.7176 33.0927 31.7328 35.9259 28.0509 35.9259H20.0509C16.369 35.9259 13.3843 33.0927 13.3843 29.5978V20.7384C13.3843 20.0394 13.9812 19.4728 14.7176 19.4728H17.3843V16.443C17.3843 14.8817 18.0624 13.3941 19.2527 12.3047ZM26.9983 14.1269C27.6783 14.7493 28.0509 15.5834 28.0509 16.443V19.4728H20.0509V16.443C20.0509 15.5834 20.4236 14.7493 21.1036 14.1269C21.7854 13.503 22.72 13.1447 23.7043 13.1447H24.3976C25.3819 13.1447 26.3165 13.503 26.9983 14.1269ZM20.0509 33.3947C17.8418 33.3947 16.0509 31.6948 16.0509 29.5978V22.0041H32.0509V29.5978C32.0509 31.6948 30.2601 33.3947 28.0509 33.3947H20.0509Z" fill="#0062E1"/>
<path fill-rule="evenodd" clip-rule="evenodd" d="M45.3587 2.3318C31.2715 -0.126021 16.8304 -0.126021 2.74324 2.3318C2.1585 2.43382 1.71557 2.89101 1.65735 3.45264L0.191314 17.5963C-0.639854 24.8999 1.25414 32.249 5.54359 38.3636C9.83425 44.48 16.2497 48.9736 23.6721 51.0613C23.9194 51.1308 24.1825 51.1308 24.4298 51.0613C31.8522 48.9736 38.2676 44.48 42.5583 38.3636C46.8478 32.2489 48.7418 24.8999 47.9106 17.5962L47.9099 17.5901L46.4445 3.45264C46.3863 2.89101 45.9434 2.43382 45.3587 2.3318ZM2.84454 17.8502L4.21244 4.65333C17.3385 2.47514 30.7634 2.47514 43.8895 4.65333L45.2573 17.8502L45.2587 17.8624C46.0245 24.5789 44.2833 31.3376 40.3387 36.9607C36.4672 42.4795 30.7141 46.5612 24.0509 48.5252C17.3877 46.5612 11.6347 42.4795 7.7632 36.9607C3.81856 31.3376 2.07744 24.5789 2.8432 17.8624L2.84454 17.8502Z" fill="#0062E1"/>
</svg>
