<svg width="14" height="12" viewBox="0 0 14 12" fill="none" xmlns="http://www.w3.org/2000/svg">
<path d="M7.29183 4.36068C7.29183 4.1996 7.16125 4.06902 7.00016 4.06902C6.83908 4.06902 6.7085 4.1996 6.7085 4.36068V4.65235C6.7085 4.81343 6.83908 4.94402 7.00016 4.94402C7.16125 4.94402 7.29183 4.81343 7.29183 4.65235V4.36068Z" fill="white"/>
<path fill-rule="evenodd" clip-rule="evenodd" d="M6.92433 0.569016C6.56103 0.569016 6.21057 0.708067 5.95055 0.958773C5.69017 1.20983 5.54183 1.55265 5.54183 1.91245V2.61068H4.9585C4.79741 2.61068 4.66683 2.74127 4.66683 2.90235V4.94402C4.66683 5.74943 5.31975 6.40235 6.12516 6.40235H7.87516C8.68058 6.40235 9.3335 5.74943 9.3335 4.94402V2.90235C9.3335 2.74127 9.20291 2.61068 9.04183 2.61068H8.4585V1.91245C8.4585 1.55265 8.31016 1.20983 8.04978 0.958773C7.78976 0.708067 7.4393 0.569016 7.076 0.569016H6.92433ZM6.12516 5.81902C5.64191 5.81902 5.25016 5.42726 5.25016 4.94402V3.19402H8.75016V4.94402C8.75016 5.42726 8.35841 5.81902 7.87516 5.81902H6.12516ZM6.35544 1.3787C6.20668 1.52214 6.12516 1.71436 6.12516 1.91245V2.61068H7.87516V1.91245C7.87516 1.71436 7.79365 1.52214 7.64489 1.3787C7.49576 1.23492 7.29131 1.15235 7.076 1.15235H6.92433C6.70901 1.15235 6.50456 1.23492 6.35544 1.3787Z" fill="white"/>
<path d="M1.16683 6.11048C1.16683 5.94953 1.29728 5.81902 1.4585 5.81902H3.79183C3.95291 5.81902 4.0835 5.68843 4.0835 5.52735C4.0835 5.36627 3.95291 5.23568 3.79183 5.23568H1.4585C0.975379 5.23568 0.583496 5.6271 0.583496 6.11048V10.1954C0.583496 10.6796 0.976182 11.069 1.4585 11.069H12.5418C13.0251 11.069 13.4168 10.6773 13.4168 10.194V6.11068C13.4168 5.62743 13.0251 5.23568 12.5418 5.23568H10.2085C10.0474 5.23568 9.91683 5.36627 9.91683 5.52735C9.91683 5.68843 10.0474 5.81902 10.2085 5.81902H12.5418C12.7029 5.81902 12.8335 5.9496 12.8335 6.11068V10.194C12.8335 10.3551 12.7029 10.4857 12.5418 10.4857H1.4585C1.29648 10.4857 1.16683 10.3556 1.16683 10.1954V6.11048Z" fill="white"/>
<path d="M4.0835 8.15235C4.0835 8.47451 3.82233 8.73568 3.50016 8.73568C3.178 8.73568 2.91683 8.47451 2.91683 8.15235C2.91683 7.83018 3.178 7.56902 3.50016 7.56902C3.82233 7.56902 4.0835 7.83018 4.0835 8.15235Z" fill="white"/>
<path d="M5.8335 8.73568C6.15566 8.73568 6.41683 8.47451 6.41683 8.15235C6.41683 7.83018 6.15566 7.56902 5.8335 7.56902C5.51133 7.56902 5.25016 7.83018 5.25016 8.15235C5.25016 8.47451 5.51133 8.73568 5.8335 8.73568Z" fill="white"/>
<path d="M8.75016 8.15235C8.75016 8.47451 8.489 8.73568 8.16683 8.73568C7.84466 8.73568 7.5835 8.47451 7.5835 8.15235C7.5835 7.83018 7.84466 7.56902 8.16683 7.56902C8.489 7.56902 8.75016 7.83018 8.75016 8.15235Z" fill="white"/>
<path d="M10.5002 8.73568C10.8223 8.73568 11.0835 8.47451 11.0835 8.15235C11.0835 7.83018 10.8223 7.56902 10.5002 7.56902C10.178 7.56902 9.91683 7.83018 9.91683 8.15235C9.91683 8.47451 10.178 8.73568 10.5002 8.73568Z" fill="white"/>
</svg>
